<?xml version="1.0" encoding="UTF-8" standalone="no"?><svg xmlns="http://www.w3.org/2000/svg" xmlns:xlink="http://www.w3.org/1999/xlink" contentScriptType="application/ecmascript" contentStyleType="text/css" height="358px" preserveAspectRatio="none" style="width:1430px;height:358px;" version="1.1" viewBox="0 0 1430 358" width="1430px" zoomAndPan="magnify"><defs><filter height="300%" id="fn6oeqe4b6c6e" width="300%" x="-1" y="-1"><feGaussianBlur result="blurOut" stdDeviation="2.0"/><feColorMatrix in="blurOut" result="blurOut2" type="matrix" values="0 0 0 0 0 0 0 0 0 0 0 0 0 0 0 0 0 0 .4 0"/><feOffset dx="4.0" dy="4.0" in="blurOut2" result="blurOut3"/><feBlend in="SourceGraphic" in2="blurOut3" mode="normal"/></filter></defs><g><ellipse cx="780.3955" cy="18" fill="#000000" filter="url(#fn6oeqe4b6c6e)" rx="10" ry="10" style="stroke: none; stroke-width: 1.0;"/><rect fill="#FEFECE" filter="url(#fn6oeqe4b6c6e)" height="50" rx="12.5" ry="12.5" style="stroke: #A80036; stroke-width: 1.5;" width="72" x="744.3955" y="89"/><line style="stroke: #A80036; stroke-width: 1.5;" x1="744.3955" x2="816.3955" y1="115.2969" y2="115.2969"/><text fill="#000000" font-family="sans-serif" font-size="14" lengthAdjust="spacingAndGlyphs" textLength="52" x="754.3955" y="106.9951">paused</text><rect fill="#FEFECE" filter="url(#fn6oeqe4b6c6e)" height="50" rx="12.5" ry="12.5" style="stroke: #A80036; stroke-width: 1.5;" width="93" x="88.8955" y="216"/><line style="stroke: #A80036; stroke-width: 1.5;" x1="88.8955" x2="181.8955" y1="242.2969" y2="242.2969"/><text fill="#000000" font-family="sans-serif" font-size="14" lengthAdjust="spacingAndGlyphs" textLength="73" x="98.8955" y="233.9951">scheduled</text><rect fill="#FEFECE" filter="url(#fn6oeqe4b6c6e)" height="50" rx="12.5" ry="12.5" style="stroke: #A80036; stroke-width: 1.5;" width="72" x="613.3955" y="216"/><line style="stroke: #A80036; stroke-width: 1.5;" x1="613.3955" x2="685.3955" y1="242.2969" y2="242.2969"/><text fill="#000000" font-family="sans-serif" font-size="14" lengthAdjust="spacingAndGlyphs" textLength="52" x="623.3955" y="233.9951">offering</text><rect fill="#FEFECE" filter="url(#fn6oeqe4b6c6e)" height="50" rx="12.5" ry="12.5" style="stroke: #A80036; stroke-width: 1.5;" width="67" x="1065.8955" y="216"/><line style="stroke: #A80036; stroke-width: 1.5;" x1="1065.8955" x2="1132.8955" y1="242.2969" y2="242.2969"/><text fill="#000000" font-family="sans-serif" font-size="14" lengthAdjust="spacingAndGlyphs" textLength="47" x="1075.8955" y="233.9951">faulted</text><rect fill="#FEFECE" filter="url(#fn6oeqe4b6c6e)" height="50" rx="12.5" ry="12.5" style="stroke: #A80036; stroke-width: 1.5;" width="78" x="1265.3955" y="216"/><line style="stroke: #A80036; stroke-width: 1.5;" x1="1265.3955" x2="1343.3955" y1="242.2969" y2="242.2969"/><text fill="#000000" font-family="sans-serif" font-size="14" lengthAdjust="spacingAndGlyphs" textLength="58" x="1275.3955" y="233.9951">archived</text><ellipse cx="1304.3955" cy="337" fill="none" filter="url(#fn6oeqe4b6c6e)" rx="10" ry="10" style="stroke: #000000; stroke-width: 1.0;"/><ellipse cx="1304.8955" cy="337.5" fill="#000000" rx="6" ry="6" style="stroke: none; stroke-width: 1.0;"/><!--MD5=[fe56927796b0eafa8da761ea5b7ae567]
link *start to paused--><path d="M780.3955,28.2737 C780.3955,41.3608 780.3955,64.5555 780.3955,83.5207 " fill="none" id="*start-&gt;paused" style="stroke: #A80036; stroke-width: 1.0;"/><polygon fill="#A80036" points="780.3955,88.7458,784.3955,79.7458,780.3955,83.7458,776.3955,79.7458,780.3955,88.7458" style="stroke: #A80036; stroke-width: 1.0;"/><!--MD5=[5e62da77d849db59fc1d6cc1191e40f7]
link scheduled to paused--><path d="M177.8374,215.8577 C207.0686,199.7556 247.3525,179.9019 285.3955,169 C370.508,144.6095 636.2228,124.0449 739.1184,116.7938 " fill="none" id="scheduled-&gt;paused" style="stroke: #A80036; stroke-width: 1.0;"/><polygon fill="#A80036" points="744.1887,116.438,734.9307,113.0781,739.201,116.7881,735.4909,121.0584,744.1887,116.438" style="stroke: #A80036; stroke-width: 1.0;"/><text fill="#000000" font-family="sans-serif" font-size="13" lengthAdjust="spacingAndGlyphs" textLength="210" x="286.3955" y="182.0669">Admin or monitoring rule paused</text><!--MD5=[11c0d2c28a585e59da76cc837144f58b]
link paused to scheduled--><path d="M744.2362,115.2355 C595.6385,120.4847 38.6088,141.9139 13.3955,169 C-13.0664,197.4274 39.5396,218.1802 83.736,229.9099 " fill="none" id="paused-&gt;scheduled" style="stroke: #A80036; stroke-width: 1.0;"/><polygon fill="#A80036" points="88.8035,231.2257,81.0978,225.092,83.964,229.969,79.087,232.8352,88.8035,231.2257" style="stroke: #A80036; stroke-width: 1.0;"/><text fill="#000000" font-family="sans-serif" font-size="13" lengthAdjust="spacingAndGlyphs" textLength="220" x="14.3955" y="182.0669">Admin or monitoring rule resumed</text><!--MD5=[9f4abc417099b330748519c16c83647c]
link offering to paused--><path d="M685.715,225.0397 C704.0554,215.6494 725.6861,202.3899 741.3955,186 C752.973,173.9209 762.1484,157.73 768.6833,143.7612 " fill="none" id="offering-&gt;paused" style="stroke: #A80036; stroke-width: 1.0;"/><polygon fill="#A80036" points="770.7979,139.1183,763.4271,145.6507,768.7254,143.6685,770.7075,148.9667,770.7979,139.1183" style="stroke: #A80036; stroke-width: 1.0;"/><text fill="#000000" font-family="sans-serif" font-size="13" lengthAdjust="spacingAndGlyphs" textLength="210" x="755.3955" y="182.0669">Admin or monitoring rule paused</text><!--MD5=[47e4b0410987005c4d6cd2bc7ad2e503]
link paused to offering--><path d="M744.3087,115.9126 C677.8894,120.2684 540.4068,133.4568 511.3955,169 C481.4113,205.7351 557.3691,225.9385 608.1218,235.0139 " fill="none" id="paused-&gt;offering" style="stroke: #A80036; stroke-width: 1.0;"/><polygon fill="#A80036" points="613.2564,235.9098,605.0779,230.4224,608.3308,235.0504,603.7028,238.3033,613.2564,235.9098" style="stroke: #A80036; stroke-width: 1.0;"/><text fill="#000000" font-family="sans-serif" font-size="13" lengthAdjust="spacingAndGlyphs" textLength="220" x="512.3955" y="182.0669">Admin or monitoring rule resumed</text><!--MD5=[2d0e5e51f1bfb335d041cd33a4060848]
link paused to faulted--><path d="M816.6964,121.4732 C856.3655,130.2811 921.3404,146.6049 974.3955,169 C1004.9131,181.8818 1037.2642,200.6726 1061.4075,215.8276 " fill="none" id="paused-&gt;faulted" style="stroke: #A80036; stroke-width: 1.0;"/><polygon fill="#A80036" points="1065.8177,218.6128,1060.344,210.4251,1061.5902,215.943,1056.0723,217.1891,1065.8177,218.6128" style="stroke: #A80036; stroke-width: 1.0;"/><text fill="#000000" font-family="sans-serif" font-size="13" lengthAdjust="spacingAndGlyphs" textLength="92" x="1008.3955" y="182.0669">Fault detected</text><!--MD5=[283dffafb7eee16224b533db58a9eb19]
link faulted to paused--><path d="M1111.614,215.9796 C1117.1186,200.743 1120.2414,181.8096 1109.3955,169 C1090.9541,147.2198 905.8432,126.3712 821.6717,117.9333 " fill="none" id="faulted-&gt;paused" style="stroke: #A80036; stroke-width: 1.0;"/><polygon fill="#A80036" points="816.5199,117.4197,825.0787,122.2928,821.4952,117.9157,825.8723,114.3322,816.5199,117.4197" style="stroke: #A80036; stroke-width: 1.0;"/><text fill="#000000" font-family="sans-serif" font-size="13" lengthAdjust="spacingAndGlyphs" textLength="96" x="1117.3955" y="182.0669">Fault corrected</text><!--MD5=[040f3bc76f16ccecca8943a9c338ea83]
link paused to archived--><path d="M816.412,115.7577 C908.397,120.6763 1149.829,136.4042 1222.3955,169 C1244.2217,178.804 1264.4702,196.4587 1279.3854,211.8315 " fill="none" id="paused-&gt;archived" style="stroke: #A80036; stroke-width: 1.0;"/><polygon fill="#A80036" points="1283.0602,215.6846,1279.7431,206.4111,1279.6093,212.0664,1273.954,211.9326,1283.0602,215.6846" style="stroke: #A80036; stroke-width: 1.0;"/><text fill="#000000" font-family="sans-serif" font-size="13" lengthAdjust="spacingAndGlyphs" textLength="167" x="1251.3955" y="182.0669">Admin or system archived</text><!--MD5=[c9501c4b1d18368ae857ea4a5c273bec]
link archived to *end--><path d="M1304.3955,266.2229 C1304.3955,283.8366 1304.3955,306.7774 1304.3955,321.6928 " fill="none" id="archived-&gt;*end" style="stroke: #A80036; stroke-width: 1.0;"/><polygon fill="#A80036" points="1304.3955,326.8002,1308.3955,317.8002,1304.3955,321.8002,1300.3955,317.8002,1304.3955,326.8002" style="stroke: #A80036; stroke-width: 1.0;"/><!--MD5=[bfa33c9df5fd398ba52669bcd4f5f22b]
@startuml
skinparam backgroundColor white
[*] - -> paused
scheduled - -> paused : Admin or monitoring rule paused
offering - -> paused : Admin or monitoring rule paused
paused - -> scheduled : Admin or monitoring rule resumed
paused - -> offering : Admin or monitoring rule resumed
paused - -> faulted : Fault detected
faulted - -> paused : Fault corrected
paused - -> archived : Admin or system archived
archived - -> [*]
@enduml

PlantUML version 1.2020.09(Sun May 10 10:51:06 UTC 2020)
(GPL source distribution)
Java Runtime: OpenJDK Runtime Environment
JVM: OpenJDK 64-Bit Server VM
Java Version: 1.8.0_252-b09
Operating System: Linux
Default Encoding: UTF-8
Language: en
Country: null
--></g></svg>