<?xml version="1.0" encoding="UTF-8" standalone="no"?><svg xmlns="http://www.w3.org/2000/svg" xmlns:xlink="http://www.w3.org/1999/xlink" contentScriptType="application/ecmascript" contentStyleType="text/css" height="358px" preserveAspectRatio="none" style="width:1374px;height:358px;" version="1.1" viewBox="0 0 1374 358" width="1374px" zoomAndPan="magnify"><defs><filter height="300%" id="fg7xpbneo64ic" width="300%" x="-1" y="-1"><feGaussianBlur result="blurOut" stdDeviation="2.0"/><feColorMatrix in="blurOut" result="blurOut2" type="matrix" values="0 0 0 0 0 0 0 0 0 0 0 0 0 0 0 0 0 0 .4 0"/><feOffset dx="4.0" dy="4.0" in="blurOut2" result="blurOut3"/><feBlend in="SourceGraphic" in2="blurOut3" mode="normal"/></filter></defs><g><ellipse cx="711.8687" cy="18" fill="#000000" filter="url(#fg7xpbneo64ic)" rx="10" ry="10" style="stroke: none; stroke-width: 1.0;"/><rect fill="#FEFECE" filter="url(#fg7xpbneo64ic)" height="50" rx="12.5" ry="12.5" style="stroke: #A80036; stroke-width: 1.5;" width="72" x="675.8687" y="89"/><line style="stroke: #A80036; stroke-width: 1.5;" x1="675.8687" x2="747.8687" y1="115.2969" y2="115.2969"/><text fill="#000000" font-family="sans-serif" font-size="14" lengthAdjust="spacingAndGlyphs" textLength="52" x="685.8687" y="106.9951">offering</text><rect fill="#FEFECE" filter="url(#fg7xpbneo64ic)" height="50" rx="12.5" ry="12.5" style="stroke: #A80036; stroke-width: 1.5;" width="93" x="74.3687" y="216"/><line style="stroke: #A80036; stroke-width: 1.5;" x1="74.3687" x2="167.3687" y1="242.2969" y2="242.2969"/><text fill="#000000" font-family="sans-serif" font-size="14" lengthAdjust="spacingAndGlyphs" textLength="73" x="84.3687" y="233.9951">scheduled</text><rect fill="#FEFECE" filter="url(#fg7xpbneo64ic)" height="50" rx="12.5" ry="12.5" style="stroke: #A80036; stroke-width: 1.5;" width="72" x="549.8687" y="216"/><line style="stroke: #A80036; stroke-width: 1.5;" x1="549.8687" x2="621.8687" y1="242.2969" y2="242.2969"/><text fill="#000000" font-family="sans-serif" font-size="14" lengthAdjust="spacingAndGlyphs" textLength="52" x="559.8687" y="233.9951">paused</text><rect fill="#FEFECE" filter="url(#fg7xpbneo64ic)" height="50" rx="12.5" ry="12.5" style="stroke: #A80036; stroke-width: 1.5;" width="67" x="1007.3687" y="216"/><line style="stroke: #A80036; stroke-width: 1.5;" x1="1007.3687" x2="1074.3687" y1="242.2969" y2="242.2969"/><text fill="#000000" font-family="sans-serif" font-size="14" lengthAdjust="spacingAndGlyphs" textLength="47" x="1017.3687" y="233.9951">faulted</text><rect fill="#FEFECE" filter="url(#fg7xpbneo64ic)" height="50" rx="12.5" ry="12.5" style="stroke: #A80036; stroke-width: 1.5;" width="78" x="1206.8687" y="216"/><line style="stroke: #A80036; stroke-width: 1.5;" x1="1206.8687" x2="1284.8687" y1="242.2969" y2="242.2969"/><text fill="#000000" font-family="sans-serif" font-size="14" lengthAdjust="spacingAndGlyphs" textLength="58" x="1216.8687" y="233.9951">archived</text><ellipse cx="1245.8687" cy="337" fill="none" filter="url(#fg7xpbneo64ic)" rx="10" ry="10" style="stroke: #000000; stroke-width: 1.0;"/><ellipse cx="1246.3687" cy="337.5" fill="#000000" rx="6" ry="6" style="stroke: none; stroke-width: 1.0;"/><!--MD5=[744be610511d8cd2da71d74cfee70912]
link *start to offering--><path d="M711.8687,28.2737 C711.8687,41.3608 711.8687,64.5555 711.8687,83.5207 " fill="none" id="*start-&gt;offering" style="stroke: #A80036; stroke-width: 1.0;"/><polygon fill="#A80036" points="711.8687,88.7458,715.8687,79.7458,711.8687,83.7458,707.8687,79.7458,711.8687,88.7458" style="stroke: #A80036; stroke-width: 1.0;"/><!--MD5=[93a4787f4c228003c6763f98edb20394]
link scheduled to offering--><path d="M161.5228,215.961 C189.5456,199.9038 228.2084,180.0613 264.8687,169 C340.5234,146.1732 575.3851,125.1044 670.8732,117.2486 " fill="none" id="scheduled-&gt;offering" style="stroke: #A80036; stroke-width: 1.0;"/><polygon fill="#A80036" points="675.8632,116.8397,666.5665,113.5882,670.8799,117.2481,667.22,121.5615,675.8632,116.8397" style="stroke: #A80036; stroke-width: 1.0;"/><text fill="#000000" font-family="sans-serif" font-size="13" lengthAdjust="spacingAndGlyphs" textLength="176" x="265.8687" y="182.0669">Scheduling condition is met</text><!--MD5=[592162b2fe555b0a5bc5ad8790cb4281]
link offering to scheduled--><path d="M675.6355,115.4987 C535.4889,121.4675 35.5921,144.4184 12.8687,169 C-10.1152,193.8634 31.0852,214.3437 69.0443,227.0209 " fill="none" id="offering-&gt;scheduled" style="stroke: #A80036; stroke-width: 1.0;"/><polygon fill="#A80036" points="74.1314,228.681,66.8164,222.0863,69.3781,227.1298,64.3345,229.6916,74.1314,228.681" style="stroke: #A80036; stroke-width: 1.0;"/><text fill="#000000" font-family="sans-serif" font-size="13" lengthAdjust="spacingAndGlyphs" textLength="201" x="13.8687" y="182.0669">Scheduling condition is not met</text><!--MD5=[9f4abc417099b330748519c16c83647c]
link offering to paused--><path d="M675.6527,116.3672 C611.9399,121.3683 483.9659,135.4352 456.8687,169 C429.1215,203.3699 497.0932,224.0818 544.5517,233.957 " fill="none" id="offering-&gt;paused" style="stroke: #A80036; stroke-width: 1.0;"/><polygon fill="#A80036" points="549.6522,234.9934,541.629,229.2812,544.7523,233.9977,540.0359,237.121,549.6522,234.9934" style="stroke: #A80036; stroke-width: 1.0;"/><text fill="#000000" font-family="sans-serif" font-size="13" lengthAdjust="spacingAndGlyphs" textLength="210" x="457.8687" y="182.0669">Admin or monitoring rule paused</text><!--MD5=[47e4b0410987005c4d6cd2bc7ad2e503]
link paused to offering--><path d="M621.9029,223.7119 C638.8597,214.2921 658.469,201.4033 672.8687,186 C684.2948,173.7775 693.458,157.5751 700.0239,143.6357 " fill="none" id="paused-&gt;offering" style="stroke: #A80036; stroke-width: 1.0;"/><polygon fill="#A80036" points="702.1505,139.0042,694.7598,145.514,700.0641,143.5481,702.03,148.8523,702.1505,139.0042" style="stroke: #A80036; stroke-width: 1.0;"/><text fill="#000000" font-family="sans-serif" font-size="13" lengthAdjust="spacingAndGlyphs" textLength="220" x="686.8687" y="182.0669">Admin or monitoring rule resumed</text><!--MD5=[32c060e393ceda02f5e4f468aa6f5b43]
link offering to faulted--><path d="M748.1753,120.815 C789.7093,129.2844 859.2802,145.5426 915.8687,169 C946.4688,181.6846 978.8171,200.4819 1002.9385,215.6894 " fill="none" id="offering-&gt;faulted" style="stroke: #A80036; stroke-width: 1.0;"/><polygon fill="#A80036" points="1007.3444,218.4849,1001.8879,210.2857,1003.1225,215.8062,997.602,217.0408,1007.3444,218.4849" style="stroke: #A80036; stroke-width: 1.0;"/><text fill="#000000" font-family="sans-serif" font-size="13" lengthAdjust="spacingAndGlyphs" textLength="92" x="952.8687" y="182.0669">Fault detected</text><!--MD5=[7e168612520fba7b4ddb2bc686e456c1]
link faulted to offering--><path d="M1054.7178,215.6699 C1060.9466,200.5062 1064.7427,181.7625 1053.8687,169 C1034.5334,146.3068 839.9463,125.7693 753.2121,117.6642 " fill="none" id="faulted-&gt;offering" style="stroke: #A80036; stroke-width: 1.0;"/><polygon fill="#A80036" points="748.1594,117.1947,756.7506,122.0104,753.1379,117.6574,757.4909,114.0447,748.1594,117.1947" style="stroke: #A80036; stroke-width: 1.0;"/><text fill="#000000" font-family="sans-serif" font-size="13" lengthAdjust="spacingAndGlyphs" textLength="96" x="1061.8687" y="182.0669">Fault corrected</text><!--MD5=[4b46d481bce657bc4b74cb1a4e431593]
link offering to archived--><path d="M747.9474,115.5351 C841.9317,119.9781 1092.1827,134.7759 1166.8687,169 C1188.175,178.7634 1207.6864,196.4175 1221.9882,211.8002 " fill="none" id="offering-&gt;archived" style="stroke: #A80036; stroke-width: 1.0;"/><polygon fill="#A80036" points="1225.5099,215.656,1222.3938,206.3131,1222.1379,211.9642,1216.4868,211.7083,1225.5099,215.656" style="stroke: #A80036; stroke-width: 1.0;"/><text fill="#000000" font-family="sans-serif" font-size="13" lengthAdjust="spacingAndGlyphs" textLength="167" x="1195.8687" y="182.0669">Admin or system archived</text><!--MD5=[c9501c4b1d18368ae857ea4a5c273bec]
link archived to *end--><path d="M1245.8687,266.2229 C1245.8687,283.8366 1245.8687,306.7774 1245.8687,321.6928 " fill="none" id="archived-&gt;*end" style="stroke: #A80036; stroke-width: 1.0;"/><polygon fill="#A80036" points="1245.8687,326.8002,1249.8687,317.8002,1245.8687,321.8002,1241.8687,317.8002,1245.8687,326.8002" style="stroke: #A80036; stroke-width: 1.0;"/><!--MD5=[0e2f80da0e53d3f2d9101eff57caacdf]
@startuml
skinparam backgroundColor white
[*] - -> offering
scheduled - -> offering : Scheduling condition is met
offering - -> scheduled : Scheduling condition is not met
offering - -> paused : Admin or monitoring rule paused
paused - -> offering : Admin or monitoring rule resumed
offering - -> faulted : Fault detected
faulted - -> offering : Fault corrected
offering - -> archived : Admin or system archived
archived - -> [*]
@enduml

PlantUML version 1.2020.09(Sun May 10 10:51:06 UTC 2020)
(GPL source distribution)
Java Runtime: OpenJDK Runtime Environment
JVM: OpenJDK 64-Bit Server VM
Java Version: 1.8.0_252-b09
Operating System: Linux
Default Encoding: UTF-8
Language: en
Country: null
--></g></svg>