<?xml version="1.0" encoding="UTF-8" standalone="no"?><svg xmlns="http://www.w3.org/2000/svg" xmlns:xlink="http://www.w3.org/1999/xlink" contentScriptType="application/ecmascript" contentStyleType="text/css" height="739px" preserveAspectRatio="none" style="width:1203px;height:739px;" version="1.1" viewBox="0 0 1203 739" width="1203px" zoomAndPan="magnify"><defs><filter height="300%" id="fpp9l7359tlbo" width="300%" x="-1" y="-1"><feGaussianBlur result="blurOut" stdDeviation="2.0"/><feColorMatrix in="blurOut" result="blurOut2" type="matrix" values="0 0 0 0 0 0 0 0 0 0 0 0 0 0 0 0 0 0 .4 0"/><feOffset dx="4.0" dy="4.0" in="blurOut2" result="blurOut3"/><feBlend in="SourceGraphic" in2="blurOut3" mode="normal"/></filter></defs><g><ellipse cx="440" cy="18" fill="#000000" filter="url(#fpp9l7359tlbo)" rx="10" ry="10" style="stroke: none; stroke-width: 1.0;"/><rect fill="#FEFECE" filter="url(#fpp9l7359tlbo)" height="50" rx="12.5" ry="12.5" style="stroke: #A80036; stroke-width: 1.5;" width="93" x="393.5" y="89"/><line style="stroke: #A80036; stroke-width: 1.5;" x1="393.5" x2="486.5" y1="115.2969" y2="115.2969"/><text fill="#000000" font-family="sans-serif" font-size="14" lengthAdjust="spacingAndGlyphs" textLength="73" x="403.5" y="106.9951">scheduled</text><rect fill="#FEFECE" filter="url(#fpp9l7359tlbo)" height="50" rx="12.5" ry="12.5" style="stroke: #A80036; stroke-width: 1.5;" width="72" x="647" y="216"/><line style="stroke: #A80036; stroke-width: 1.5;" x1="647" x2="719" y1="242.2969" y2="242.2969"/><text fill="#000000" font-family="sans-serif" font-size="14" lengthAdjust="spacingAndGlyphs" textLength="52" x="657" y="233.9951">offering</text><rect fill="#FEFECE" filter="url(#fpp9l7359tlbo)" height="50" rx="12.5" ry="12.5" style="stroke: #A80036; stroke-width: 1.5;" width="72" x="243" y="343"/><line style="stroke: #A80036; stroke-width: 1.5;" x1="243" x2="315" y1="369.2969" y2="369.2969"/><text fill="#000000" font-family="sans-serif" font-size="14" lengthAdjust="spacingAndGlyphs" textLength="52" x="253" y="360.9951">paused</text><rect fill="#FEFECE" filter="url(#fpp9l7359tlbo)" height="50" rx="12.5" ry="12.5" style="stroke: #A80036; stroke-width: 1.5;" width="67" x="767.5" y="470"/><line style="stroke: #A80036; stroke-width: 1.5;" x1="767.5" x2="834.5" y1="496.2969" y2="496.2969"/><text fill="#000000" font-family="sans-serif" font-size="14" lengthAdjust="spacingAndGlyphs" textLength="47" x="777.5" y="487.9951">faulted</text><rect fill="#FEFECE" filter="url(#fpp9l7359tlbo)" height="50" rx="12.5" ry="12.5" style="stroke: #A80036; stroke-width: 1.5;" width="78" x="405" y="597"/><line style="stroke: #A80036; stroke-width: 1.5;" x1="405" x2="483" y1="623.2969" y2="623.2969"/><text fill="#000000" font-family="sans-serif" font-size="14" lengthAdjust="spacingAndGlyphs" textLength="58" x="415" y="614.9951">archived</text><ellipse cx="444" cy="718" fill="none" filter="url(#fpp9l7359tlbo)" rx="10" ry="10" style="stroke: #000000; stroke-width: 1.0;"/><ellipse cx="444.5" cy="718.5" fill="#000000" rx="6" ry="6" style="stroke: none; stroke-width: 1.0;"/><!--MD5=[ec2817281ccf117d07a561386d9eb102]
link *start to scheduled--><path d="M440,28.2737 C440,41.3608 440,64.5555 440,83.5207 " fill="none" id="*start-&gt;scheduled" style="stroke: #A80036; stroke-width: 1.0;"/><polygon fill="#A80036" points="440,88.7458,444,79.7458,440,83.7458,436,79.7458,440,88.7458" style="stroke: #A80036; stroke-width: 1.0;"/><!--MD5=[93a4787f4c228003c6763f98edb20394]
link scheduled to offering--><path d="M486.708,122.1675 C539.047,132.0724 619.7549,149.8367 644,169 C657.5272,179.6919 666.9908,196.4145 673.205,211.0532 " fill="none" id="scheduled-&gt;offering" style="stroke: #A80036; stroke-width: 1.0;"/><polygon fill="#A80036" points="675.189,215.9261,675.4997,206.0821,673.3034,211.2953,668.0903,209.099,675.189,215.9261" style="stroke: #A80036; stroke-width: 1.0;"/><text fill="#000000" font-family="sans-serif" font-size="13" lengthAdjust="spacingAndGlyphs" textLength="176" x="660" y="182.0669">Scheduling condition is met</text><!--MD5=[592162b2fe555b0a5bc5ad8790cb4281]
link offering to scheduled--><path d="M646.8795,228.0996 C634.0817,223.8424 619.5062,219.3456 606,216 C568.1265,206.6184 458.1227,215.8542 433,186 C423.4215,174.6175 424.2058,158.3535 427.8137,144.1623 " fill="none" id="offering-&gt;scheduled" style="stroke: #A80036; stroke-width: 1.0;"/><polygon fill="#A80036" points="429.2567,139.0407,422.9658,146.6186,427.9007,143.8533,430.666,148.7882,429.2567,139.0407" style="stroke: #A80036; stroke-width: 1.0;"/><text fill="#000000" font-family="sans-serif" font-size="13" lengthAdjust="spacingAndGlyphs" textLength="201" x="434" y="182.0669">Scheduling condition is not met</text><!--MD5=[5e62da77d849db59fc1d6cc1191e40f7]
link scheduled to paused--><path d="M393.4608,122.275 C313.3858,137.5313 154.8589,172.5413 121,216 C94.469,250.0531 90.8234,277.9337 116,313 C123.3527,323.2409 191.9147,343.899 237.7449,356.7777 " fill="none" id="scheduled-&gt;paused" style="stroke: #A80036; stroke-width: 1.0;"/><polygon fill="#A80036" points="242.66,358.1536,235.0714,351.8756,237.8451,356.8058,232.9149,359.5794,242.66,358.1536" style="stroke: #A80036; stroke-width: 1.0;"/><text fill="#000000" font-family="sans-serif" font-size="13" lengthAdjust="spacingAndGlyphs" textLength="210" x="122" y="245.5669">Admin or monitoring rule paused</text><!--MD5=[11c0d2c28a585e59da76cc837144f58b]
link paused to scheduled--><path d="M242.9808,359.0788 C203.1235,347.5153 147.539,325.3095 172,296 C219.7585,238.7752 274.5538,306.6942 337,266 C382.4951,236.3523 413.051,178.8555 428.4043,143.7014 " fill="none" id="paused-&gt;scheduled" style="stroke: #A80036; stroke-width: 1.0;"/><polygon fill="#A80036" points="430.3804,139.106,423.1503,145.7937,428.4051,143.6993,430.4995,148.9541,430.3804,139.106" style="stroke: #A80036; stroke-width: 1.0;"/><text fill="#000000" font-family="sans-serif" font-size="13" lengthAdjust="spacingAndGlyphs" textLength="220" x="388" y="245.5669">Admin or monitoring rule resumed</text><!--MD5=[9f4abc417099b330748519c16c83647c]
link offering to paused--><path d="M646.8397,253.7429 C634.0384,257.9864 619.4709,262.5148 606,266 C538.4917,283.4656 518.2613,274.2777 452,296 C435.1862,301.512 432.2174,305.923 416,313 C384.045,326.9446 347.3665,341.5995 320.0075,352.2723 " fill="none" id="offering-&gt;paused" style="stroke: #A80036; stroke-width: 1.0;"/><polygon fill="#A80036" points="315.0107,354.2178,324.8487,354.6799,319.67,352.4037,321.9462,347.225,315.0107,354.2178" style="stroke: #A80036; stroke-width: 1.0;"/><text fill="#000000" font-family="sans-serif" font-size="13" lengthAdjust="spacingAndGlyphs" textLength="210" x="453" y="309.0669">Admin or monitoring rule paused</text><!--MD5=[47e4b0410987005c4d6cd2bc7ad2e503]
link paused to offering--><path d="M242.7583,356.2827 C207.7654,343.164 163.1801,320.5081 186,296 C217.8821,261.7594 560.0797,274.9563 606,266 C617.8293,263.6928 630.3732,260.1263 641.8257,256.4029 " fill="none" id="paused-&gt;offering" style="stroke: #A80036; stroke-width: 1.0;"/><polygon fill="#A80036" points="646.6618,254.8008,636.8605,253.8341,641.9155,256.3732,639.3763,261.4282,646.6618,254.8008" style="stroke: #A80036; stroke-width: 1.0;"/><text fill="#000000" font-family="sans-serif" font-size="13" lengthAdjust="spacingAndGlyphs" textLength="220" x="187" y="309.0669">Admin or monitoring rule resumed</text><!--MD5=[be4998f005dcc9520694ce7b92837125]
link scheduled to faulted--><path d="M486.8498,115.7581 C580.1865,119.9955 785.4823,133.2096 845,169 C942.7028,227.7528 1026.0421,293.7175 970,393 C942.2378,442.1828 880.1829,470.3131 839.4926,484.1138 " fill="none" id="scheduled-&gt;faulted" style="stroke: #A80036; stroke-width: 1.0;"/><polygon fill="#A80036" points="834.64,485.7263,844.4422,486.6842,839.3849,484.1496,841.9195,479.0924,834.64,485.7263" style="stroke: #A80036; stroke-width: 1.0;"/><text fill="#000000" font-family="sans-serif" font-size="13" lengthAdjust="spacingAndGlyphs" textLength="92" x="987" y="309.0669">Fault detected</text><!--MD5=[668dbd7e4fbe852b1cb73cfcb8208dec]
link faulted to scheduled--><path d="M834.7554,488.1276 C922.6419,468.5353 1147.7147,406.5654 1088,296 C1037.2475,202.0287 985.3167,202.7837 884,169 C812.2638,145.0798 592.7947,125.7289 491.8231,117.8346 " fill="none" id="faulted-&gt;scheduled" style="stroke: #A80036; stroke-width: 1.0;"/><polygon fill="#A80036" points="486.812,117.4446,495.4745,122.1309,491.7969,117.8326,496.0953,114.1551,486.812,117.4446" style="stroke: #A80036; stroke-width: 1.0;"/><text fill="#000000" font-family="sans-serif" font-size="13" lengthAdjust="spacingAndGlyphs" textLength="96" x="1095" y="309.0669">Fault corrected</text><!--MD5=[32c060e393ceda02f5e4f468aa6f5b43]
link offering to faulted--><path d="M694.9018,266.2879 C712.3822,303.2212 744.3953,370.0208 758,393 C766.2915,407.005 771.8675,408.3707 779,423 C785.422,436.1721 790.4387,451.6167 794.0491,464.8167 " fill="none" id="offering-&gt;faulted" style="stroke: #A80036; stroke-width: 1.0;"/><polygon fill="#A80036" points="795.4126,469.9442,796.9652,460.2185,794.1276,465.1121,789.2339,462.2745,795.4126,469.9442" style="stroke: #A80036; stroke-width: 1.0;"/><text fill="#000000" font-family="sans-serif" font-size="13" lengthAdjust="spacingAndGlyphs" textLength="92" x="759" y="372.5669">Fault detected</text><!--MD5=[7e168612520fba7b4ddb2bc686e456c1]
link faulted to offering--><path d="M822.8243,469.91 C847.0766,438.8049 879.8737,384.7901 856,343 C827.913,293.8346 765.8417,266 724.2061,252.2183 " fill="none" id="faulted-&gt;offering" style="stroke: #A80036; stroke-width: 1.0;"/><polygon fill="#A80036" points="719.2336,250.6068,726.5619,257.1868,723.99,252.1484,729.0284,249.5765,719.2336,250.6068" style="stroke: #A80036; stroke-width: 1.0;"/><text fill="#000000" font-family="sans-serif" font-size="13" lengthAdjust="spacingAndGlyphs" textLength="96" x="865" y="372.5669">Fault corrected</text><!--MD5=[2d0e5e51f1bfb335d041cd33a4060848]
link paused to faulted--><path d="M315.2537,379.5084 C347.3349,389.9734 395.2481,406.293 436,423 C452.3718,429.7119 455.114,434.7134 472,440 C573.8645,471.8914 699.596,486.3711 762.0207,491.9795 " fill="none" id="paused-&gt;faulted" style="stroke: #A80036; stroke-width: 1.0;"/><polygon fill="#A80036" points="767.1334,492.4317,758.5209,487.6542,762.1528,491.9911,757.816,495.6231,767.1334,492.4317" style="stroke: #A80036; stroke-width: 1.0;"/><text fill="#000000" font-family="sans-serif" font-size="13" lengthAdjust="spacingAndGlyphs" textLength="92" x="473" y="436.0669">Fault detected</text><!--MD5=[283dffafb7eee16224b533db58a9eb19]
link faulted to paused--><path d="M767.3672,492.657 C665.9078,485.3703 367.5278,462.2599 330,440 C313.6426,430.2975 301.1557,413.071 292.6324,397.9006 " fill="none" id="faulted-&gt;paused" style="stroke: #A80036; stroke-width: 1.0;"/><polygon fill="#A80036" points="290.1146,393.2692,290.899,403.0868,292.5027,397.662,297.9275,399.2658,290.1146,393.2692" style="stroke: #A80036; stroke-width: 1.0;"/><text fill="#000000" font-family="sans-serif" font-size="13" lengthAdjust="spacingAndGlyphs" textLength="96" x="331" y="436.0669">Fault corrected</text><!--MD5=[e708fe225b277342f98da17222acacdd]
link scheduled to archived--><path d="M393.142,117.7167 C280.9192,127.9036 6,161.021 6,241 C6,241 6,241 6,495 C6,576.3463 288.2073,608.9284 399.5728,618.619 " fill="none" id="scheduled-&gt;archived" style="stroke: #A80036; stroke-width: 1.0;"/><polygon fill="#A80036" points="404.745,619.0633,396.1204,614.3076,399.7634,618.6353,395.4356,622.2782,404.745,619.0633" style="stroke: #A80036; stroke-width: 1.0;"/><text fill="#000000" font-family="sans-serif" font-size="13" lengthAdjust="spacingAndGlyphs" textLength="167" x="7" y="372.5669">Admin or system archived</text><!--MD5=[040f3bc76f16ccecca8943a9c338ea83]
link paused to archived--><path d="M285.1365,393.1773 C289.1499,407.4036 295.1181,425.2388 303,440 C334.4788,498.9535 384.9866,558.5366 416.2378,592.778 " fill="none" id="paused-&gt;archived" style="stroke: #A80036; stroke-width: 1.0;"/><polygon fill="#A80036" points="419.9509,596.8264,416.8155,587.4899,416.5713,593.1415,410.9197,592.8973,419.9509,596.8264" style="stroke: #A80036; stroke-width: 1.0;"/><text fill="#000000" font-family="sans-serif" font-size="13" lengthAdjust="spacingAndGlyphs" textLength="167" x="356" y="499.5669">Admin or system archived</text><!--MD5=[4b46d481bce657bc4b74cb1a4e431593]
link offering to archived--><path d="M680.1466,266.0125 C677.9553,280.1856 674.2151,298.0225 668,313 C646.9046,363.8367 565.1587,476.0695 532,520 C512.7143,545.5508 488.8949,572.9379 470.9031,592.8936 " fill="none" id="offering-&gt;archived" style="stroke: #A80036; stroke-width: 1.0;"/><polygon fill="#A80036" points="467.3855,596.7828,476.389,592.7908,470.7393,593.0744,470.4557,587.4247,467.3855,596.7828" style="stroke: #A80036; stroke-width: 1.0;"/><text fill="#000000" font-family="sans-serif" font-size="13" lengthAdjust="spacingAndGlyphs" textLength="167" x="601" y="436.0669">Admin or system archived</text><!--MD5=[a407eebc53bd882ae384988f693bea22]
link faulted to archived--><path d="M767.4961,511.0526 C734.3276,526.5801 681.8598,550.17 635,567 C585.5819,584.7489 527.4287,600.8302 488.3853,610.9554 " fill="none" id="faulted-&gt;archived" style="stroke: #A80036; stroke-width: 1.0;"/><polygon fill="#A80036" points="483.2444,612.2828,492.9587,613.9055,488.0856,611.0327,490.9585,606.1596,483.2444,612.2828" style="stroke: #A80036; stroke-width: 1.0;"/><text fill="#000000" font-family="sans-serif" font-size="13" lengthAdjust="spacingAndGlyphs" textLength="167" x="677" y="563.0669">Admin or system archived</text><!--MD5=[c9501c4b1d18368ae857ea4a5c273bec]
link archived to *end--><path d="M444,647.2229 C444,664.8366 444,687.7774 444,702.6928 " fill="none" id="archived-&gt;*end" style="stroke: #A80036; stroke-width: 1.0;"/><polygon fill="#A80036" points="444,707.8002,448,698.8002,444,702.8002,440,698.8002,444,707.8002" style="stroke: #A80036; stroke-width: 1.0;"/><!--MD5=[c401bfc0a32c3c279d581b8872cf98e6]
@startuml
[*] - -> scheduled
scheduled - -> offering : Scheduling condition is met
offering - -> scheduled : Scheduling condition is not met

scheduled - -> paused : Admin or monitoring rule paused
offering - -> paused : Admin or monitoring rule paused

paused - -> scheduled : Admin or monitoring rule resumed
paused - -> offering : Admin or monitoring rule resumed

scheduled - -> faulted : Fault detected
offering - -> faulted : Fault detected
paused - -> faulted : Fault detected

faulted - -> scheduled : Fault corrected
faulted - -> offering : Fault corrected
faulted - -> paused : Fault corrected

scheduled - -> archived : Admin or system archived
paused - -> archived : Admin or system archived
offering - -> archived : Admin or system archived
faulted - -> archived : Admin or system archived
archived - -> [*]
@enduml

PlantUML version 1.2020.09(Sun May 10 10:51:06 UTC 2020)
(GPL source distribution)
Java Runtime: OpenJDK Runtime Environment
JVM: OpenJDK 64-Bit Server VM
Java Version: 1.8.0_252-b09
Operating System: Linux
Default Encoding: UTF-8
Language: en
Country: null
--></g></svg>