<?xml version="1.0" encoding="UTF-8" standalone="no"?><svg xmlns="http://www.w3.org/2000/svg" xmlns:xlink="http://www.w3.org/1999/xlink" contentScriptType="application/ecmascript" contentStyleType="text/css" height="358px" preserveAspectRatio="none" style="width:1389px;height:358px;" version="1.1" viewBox="0 0 1389 358" width="1389px" zoomAndPan="magnify"><defs><filter height="300%" id="fqqzds44v7kwk" width="300%" x="-1" y="-1"><feGaussianBlur result="blurOut" stdDeviation="2.0"/><feColorMatrix in="blurOut" result="blurOut2" type="matrix" values="0 0 0 0 0 0 0 0 0 0 0 0 0 0 0 0 0 0 .4 0"/><feOffset dx="4.0" dy="4.0" in="blurOut2" result="blurOut3"/><feBlend in="SourceGraphic" in2="blurOut3" mode="normal"/></filter></defs><g><ellipse cx="726.0833" cy="18" fill="#000000" filter="url(#fqqzds44v7kwk)" rx="10" ry="10" style="stroke: none; stroke-width: 1.0;"/><rect fill="#FEFECE" filter="url(#fqqzds44v7kwk)" height="50" rx="12.5" ry="12.5" style="stroke: #A80036; stroke-width: 1.5;" width="93" x="679.5833" y="89"/><line style="stroke: #A80036; stroke-width: 1.5;" x1="679.5833" x2="772.5833" y1="115.2969" y2="115.2969"/><text fill="#000000" font-family="sans-serif" font-size="14" lengthAdjust="spacingAndGlyphs" textLength="73" x="689.5833" y="106.9951">scheduled</text><rect fill="#FEFECE" filter="url(#fqqzds44v7kwk)" height="50" rx="12.5" ry="12.5" style="stroke: #A80036; stroke-width: 1.5;" width="72" x="89.0833" y="216"/><line style="stroke: #A80036; stroke-width: 1.5;" x1="89.0833" x2="161.0833" y1="242.2969" y2="242.2969"/><text fill="#000000" font-family="sans-serif" font-size="14" lengthAdjust="spacingAndGlyphs" textLength="52" x="99.0833" y="233.9951">offering</text><rect fill="#FEFECE" filter="url(#fqqzds44v7kwk)" height="50" rx="12.5" ry="12.5" style="stroke: #A80036; stroke-width: 1.5;" width="72" x="564.0833" y="216"/><line style="stroke: #A80036; stroke-width: 1.5;" x1="564.0833" x2="636.0833" y1="242.2969" y2="242.2969"/><text fill="#000000" font-family="sans-serif" font-size="14" lengthAdjust="spacingAndGlyphs" textLength="52" x="574.0833" y="233.9951">paused</text><rect fill="#FEFECE" filter="url(#fqqzds44v7kwk)" height="50" rx="12.5" ry="12.5" style="stroke: #A80036; stroke-width: 1.5;" width="67" x="1021.5833" y="216"/><line style="stroke: #A80036; stroke-width: 1.5;" x1="1021.5833" x2="1088.5833" y1="242.2969" y2="242.2969"/><text fill="#000000" font-family="sans-serif" font-size="14" lengthAdjust="spacingAndGlyphs" textLength="47" x="1031.5833" y="233.9951">faulted</text><rect fill="#FEFECE" filter="url(#fqqzds44v7kwk)" height="50" rx="12.5" ry="12.5" style="stroke: #A80036; stroke-width: 1.5;" width="78" x="1221.0833" y="216"/><line style="stroke: #A80036; stroke-width: 1.5;" x1="1221.0833" x2="1299.0833" y1="242.2969" y2="242.2969"/><text fill="#000000" font-family="sans-serif" font-size="14" lengthAdjust="spacingAndGlyphs" textLength="58" x="1231.0833" y="233.9951">archived</text><ellipse cx="1260.0833" cy="337" fill="none" filter="url(#fqqzds44v7kwk)" rx="10" ry="10" style="stroke: #000000; stroke-width: 1.0;"/><ellipse cx="1260.5833" cy="337.5" fill="#000000" rx="6" ry="6" style="stroke: none; stroke-width: 1.0;"/><!--MD5=[ec2817281ccf117d07a561386d9eb102]
link *start to scheduled--><path d="M726.0833,28.2737 C726.0833,41.3608 726.0833,64.5555 726.0833,83.5207 " fill="none" id="*start-&gt;scheduled" style="stroke: #A80036; stroke-width: 1.0;"/><polygon fill="#A80036" points="726.0833,88.7458,730.0833,79.7458,726.0833,83.7458,722.0833,79.7458,726.0833,88.7458" style="stroke: #A80036; stroke-width: 1.0;"/><!--MD5=[93a4787f4c228003c6763f98edb20394]
link scheduled to offering--><path d="M679.3615,115.8738 C524.3841,122.3125 35.7775,144.4877 13.0833,169 C-13.0237,197.1983 42.0065,219.1359 83.8049,231.0528 " fill="none" id="scheduled-&gt;offering" style="stroke: #A80036; stroke-width: 1.0;"/><polygon fill="#A80036" points="88.8303,232.4562,81.2379,226.1829,84.0146,231.1113,79.0861,233.888,88.8303,232.4562" style="stroke: #A80036; stroke-width: 1.0;"/><text fill="#000000" font-family="sans-serif" font-size="13" lengthAdjust="spacingAndGlyphs" textLength="176" x="14.0833" y="182.0669">Scheduling condition is met</text><!--MD5=[592162b2fe555b0a5bc5ad8790cb4281]
link offering to scheduled--><path d="M161.2065,216.3476 C186.8209,200.1368 222.6309,179.9617 257.0833,169 C333.8129,144.5869 568.9278,125.2562 674.1869,117.5822 " fill="none" id="offering-&gt;scheduled" style="stroke: #A80036; stroke-width: 1.0;"/><polygon fill="#A80036" points="679.4053,117.2036,670.1394,113.8654,674.4184,117.5655,670.7184,121.8445,679.4053,117.2036" style="stroke: #A80036; stroke-width: 1.0;"/><text fill="#000000" font-family="sans-serif" font-size="13" lengthAdjust="spacingAndGlyphs" textLength="198" x="258.0833" y="182.0669">Scheduled condition is not met</text><!--MD5=[5e62da77d849db59fc1d6cc1191e40f7]
link scheduled to paused--><path d="M679.3264,117.2313 C612.9968,122.8988 496.758,137.1971 471.0833,169 C443.3361,203.3699 511.3077,224.0818 558.7663,233.957 " fill="none" id="scheduled-&gt;paused" style="stroke: #A80036; stroke-width: 1.0;"/><polygon fill="#A80036" points="563.8668,234.9934,555.8436,229.2812,558.9669,233.9977,554.2505,237.121,563.8668,234.9934" style="stroke: #A80036; stroke-width: 1.0;"/><text fill="#000000" font-family="sans-serif" font-size="13" lengthAdjust="spacingAndGlyphs" textLength="210" x="472.0833" y="182.0669">Admin or monitoring rule paused</text><!--MD5=[11c0d2c28a585e59da76cc837144f58b]
link paused to scheduled--><path d="M636.1174,223.7119 C653.0743,214.2921 672.6836,201.4033 687.0833,186 C698.5093,173.7775 707.6725,157.5751 714.2385,143.6357 " fill="none" id="paused-&gt;scheduled" style="stroke: #A80036; stroke-width: 1.0;"/><polygon fill="#A80036" points="716.3651,139.0042,708.9744,145.514,714.2787,143.5481,716.2446,148.8523,716.3651,139.0042" style="stroke: #A80036; stroke-width: 1.0;"/><text fill="#000000" font-family="sans-serif" font-size="13" lengthAdjust="spacingAndGlyphs" textLength="220" x="701.0833" y="182.0669">Admin or monitoring rule resumed</text><!--MD5=[be4998f005dcc9520694ce7b92837125]
link scheduled to faulted--><path d="M772.9905,123.0214 C815.087,131.96 878.0693,147.4388 930.0833,169 C960.6834,181.6846 993.0317,200.4819 1017.1531,215.6894 " fill="none" id="scheduled-&gt;faulted" style="stroke: #A80036; stroke-width: 1.0;"/><polygon fill="#A80036" points="1021.559,218.4849,1016.1027,210.2856,1017.3371,215.8061,1011.8166,217.0406,1021.559,218.4849" style="stroke: #A80036; stroke-width: 1.0;"/><text fill="#000000" font-family="sans-serif" font-size="13" lengthAdjust="spacingAndGlyphs" textLength="92" x="967.0833" y="182.0669">Fault detected</text><!--MD5=[668dbd7e4fbe852b1cb73cfcb8208dec]
link faulted to scheduled--><path d="M1068.9324,215.6699 C1075.1612,200.5062 1078.9573,181.7625 1068.0833,169 C1049.4943,147.1827 868.9213,127.3579 777.9358,118.6577 " fill="none" id="faulted-&gt;scheduled" style="stroke: #A80036; stroke-width: 1.0;"/><polygon fill="#A80036" points="772.8732,118.1762,781.454,123.0104,777.8507,118.6496,782.2115,115.0463,772.8732,118.1762" style="stroke: #A80036; stroke-width: 1.0;"/><text fill="#000000" font-family="sans-serif" font-size="13" lengthAdjust="spacingAndGlyphs" textLength="96" x="1076.0833" y="182.0669">Fault corrected</text><!--MD5=[e708fe225b277342f98da17222acacdd]
link scheduled to archived--><path d="M772.6245,116.0417 C873.502,121.0411 1109.0194,135.9775 1181.0833,169 C1202.3896,178.7634 1221.901,196.4175 1236.2028,211.8002 " fill="none" id="scheduled-&gt;archived" style="stroke: #A80036; stroke-width: 1.0;"/><polygon fill="#A80036" points="1239.7245,215.656,1236.6084,206.3131,1236.3525,211.9642,1230.7014,211.7083,1239.7245,215.656" style="stroke: #A80036; stroke-width: 1.0;"/><text fill="#000000" font-family="sans-serif" font-size="13" lengthAdjust="spacingAndGlyphs" textLength="167" x="1210.0833" y="182.0669">Admin or system archived</text><!--MD5=[c9501c4b1d18368ae857ea4a5c273bec]
link archived to *end--><path d="M1260.0833,266.2229 C1260.0833,283.8366 1260.0833,306.7774 1260.0833,321.6928 " fill="none" id="archived-&gt;*end" style="stroke: #A80036; stroke-width: 1.0;"/><polygon fill="#A80036" points="1260.0833,326.8002,1264.0833,317.8002,1260.0833,321.8002,1256.0833,317.8002,1260.0833,326.8002" style="stroke: #A80036; stroke-width: 1.0;"/><!--MD5=[2fc6412db1d261bdab9a17cea81bf98d]
@startuml
[*] - -> scheduled
scheduled - -> offering : Scheduling condition is met
offering - -> scheduled : Scheduled condition is not met
scheduled - -> paused : Admin or monitoring rule paused
paused - -> scheduled : Admin or monitoring rule resumed
scheduled - -> faulted : Fault detected
faulted - -> scheduled : Fault corrected
scheduled - -> archived : Admin or system archived
archived - -> [*]
@enduml

PlantUML version 1.2020.09(Sun May 10 10:51:06 UTC 2020)
(GPL source distribution)
Java Runtime: OpenJDK Runtime Environment
JVM: OpenJDK 64-Bit Server VM
Java Version: 1.8.0_252-b09
Operating System: Linux
Default Encoding: UTF-8
Language: en
Country: null
--></g></svg>