<?xml version="1.0" encoding="UTF-8" standalone="no"?><svg xmlns="http://www.w3.org/2000/svg" xmlns:xlink="http://www.w3.org/1999/xlink" contentScriptType="application/ecmascript" contentStyleType="text/css" height="358px" preserveAspectRatio="none" style="width:938px;height:358px;" version="1.1" viewBox="0 0 938 358" width="938px" zoomAndPan="magnify"><defs><filter height="300%" id="f1cwbglnzlwv2k" width="300%" x="-1" y="-1"><feGaussianBlur result="blurOut" stdDeviation="2.0"/><feColorMatrix in="blurOut" result="blurOut2" type="matrix" values="0 0 0 0 0 0 0 0 0 0 0 0 0 0 0 0 0 0 .4 0"/><feOffset dx="4.0" dy="4.0" in="blurOut2" result="blurOut3"/><feBlend in="SourceGraphic" in2="blurOut3" mode="normal"/></filter></defs><g><ellipse cx="395.644" cy="18" fill="#000000" filter="url(#f1cwbglnzlwv2k)" rx="10" ry="10" style="stroke: none; stroke-width: 1.0;"/><rect fill="#FEFECE" filter="url(#f1cwbglnzlwv2k)" height="50" rx="12.5" ry="12.5" style="stroke: #A80036; stroke-width: 1.5;" width="67" x="362.144" y="89"/><line style="stroke: #A80036; stroke-width: 1.5;" x1="362.144" x2="429.144" y1="115.2969" y2="115.2969"/><text fill="#000000" font-family="sans-serif" font-size="14" lengthAdjust="spacingAndGlyphs" textLength="47" x="372.144" y="106.9951">faulted</text><rect fill="#FEFECE" filter="url(#f1cwbglnzlwv2k)" height="50" rx="12.5" ry="12.5" style="stroke: #A80036; stroke-width: 1.5;" width="93" x="8.144" y="216"/><line style="stroke: #A80036; stroke-width: 1.5;" x1="8.144" x2="101.144" y1="242.2969" y2="242.2969"/><text fill="#000000" font-family="sans-serif" font-size="14" lengthAdjust="spacingAndGlyphs" textLength="73" x="18.144" y="233.9951">scheduled</text><rect fill="#FEFECE" filter="url(#f1cwbglnzlwv2k)" height="50" rx="12.5" ry="12.5" style="stroke: #A80036; stroke-width: 1.5;" width="72" x="290.644" y="216"/><line style="stroke: #A80036; stroke-width: 1.5;" x1="290.644" x2="362.644" y1="242.2969" y2="242.2969"/><text fill="#000000" font-family="sans-serif" font-size="14" lengthAdjust="spacingAndGlyphs" textLength="52" x="300.644" y="233.9951">offering</text><rect fill="#FEFECE" filter="url(#f1cwbglnzlwv2k)" height="50" rx="12.5" ry="12.5" style="stroke: #A80036; stroke-width: 1.5;" width="72" x="562.644" y="216"/><line style="stroke: #A80036; stroke-width: 1.5;" x1="562.644" x2="634.644" y1="242.2969" y2="242.2969"/><text fill="#000000" font-family="sans-serif" font-size="14" lengthAdjust="spacingAndGlyphs" textLength="52" x="572.644" y="233.9951">paused</text><rect fill="#FEFECE" filter="url(#f1cwbglnzlwv2k)" height="50" rx="12.5" ry="12.5" style="stroke: #A80036; stroke-width: 1.5;" width="78" x="762.644" y="216"/><line style="stroke: #A80036; stroke-width: 1.5;" x1="762.644" x2="840.644" y1="242.2969" y2="242.2969"/><text fill="#000000" font-family="sans-serif" font-size="14" lengthAdjust="spacingAndGlyphs" textLength="58" x="772.644" y="233.9951">archived</text><ellipse cx="801.644" cy="337" fill="none" filter="url(#f1cwbglnzlwv2k)" rx="10" ry="10" style="stroke: #000000; stroke-width: 1.0;"/><ellipse cx="802.144" cy="337.5" fill="#000000" rx="6" ry="6" style="stroke: none; stroke-width: 1.0;"/><!--MD5=[88549633db422fed6b366f93b3cf27b7]
link *start to faulted--><path d="M395.644,28.2737 C395.644,41.3608 395.644,64.5555 395.644,83.5207 " fill="none" id="*start-&gt;faulted" style="stroke: #A80036; stroke-width: 1.0;"/><polygon fill="#A80036" points="395.644,88.7458,399.644,79.7458,395.644,83.7458,391.644,79.7458,395.644,88.7458" style="stroke: #A80036; stroke-width: 1.0;"/><!--MD5=[be4998f005dcc9520694ce7b92837125]
link scheduled to faulted--><path d="M79.6167,215.7471 C96.5693,200.02 120.2643,180.6336 144.644,169 C214.9028,135.4737 306.0076,122.0981 356.8912,116.9797 " fill="none" id="scheduled-&gt;faulted" style="stroke: #A80036; stroke-width: 1.0;"/><polygon fill="#A80036" points="361.9889,116.4811,352.6423,113.3762,357.0126,116.9678,353.421,121.3382,361.9889,116.4811" style="stroke: #A80036; stroke-width: 1.0;"/><text fill="#000000" font-family="sans-serif" font-size="13" lengthAdjust="spacingAndGlyphs" textLength="92" x="145.644" y="182.0669">Fault detected</text><!--MD5=[668dbd7e4fbe852b1cb73cfcb8208dec]
link faulted to scheduled--><path d="M361.9825,116.3319 C272.5982,122.8638 34.5295,142.6031 11.644,169 C0.398,181.9715 8.6345,198.2687 20.792,212.076 " fill="none" id="faulted-&gt;scheduled" style="stroke: #A80036; stroke-width: 1.0;"/><polygon fill="#A80036" points="24.3121,215.8995,21.1592,206.569,20.9256,212.221,15.2736,211.9874,24.3121,215.8995" style="stroke: #A80036; stroke-width: 1.0;"/><text fill="#000000" font-family="sans-serif" font-size="13" lengthAdjust="spacingAndGlyphs" textLength="96" x="12.644" y="182.0669">Fault corrected</text><!--MD5=[32c060e393ceda02f5e4f468aa6f5b43]
link offering to faulted--><path d="M340.3995,215.8184 C345.507,206.4587 351.3457,195.7473 356.644,186 C364.2022,172.095 372.5622,156.6675 379.5972,143.6714 " fill="none" id="offering-&gt;faulted" style="stroke: #A80036; stroke-width: 1.0;"/><polygon fill="#A80036" points="382.1252,139.0006,374.3234,145.0115,379.7452,143.3978,381.3589,148.8196,382.1252,139.0006" style="stroke: #A80036; stroke-width: 1.0;"/><text fill="#000000" font-family="sans-serif" font-size="13" lengthAdjust="spacingAndGlyphs" textLength="92" x="366.644" y="182.0669">Fault detected</text><!--MD5=[7e168612520fba7b4ddb2bc686e456c1]
link faulted to offering--><path d="M361.9482,122.074 C323.3202,132.0918 263.6438,150.1655 250.644,169 C236.0163,190.1932 260.8586,209.9815 285.9625,223.4285 " fill="none" id="faulted-&gt;offering" style="stroke: #A80036; stroke-width: 1.0;"/><polygon fill="#A80036" points="290.6436,225.8645,284.5066,218.1614,286.2083,223.5563,280.8134,225.2579,290.6436,225.8645" style="stroke: #A80036; stroke-width: 1.0;"/><text fill="#000000" font-family="sans-serif" font-size="13" lengthAdjust="spacingAndGlyphs" textLength="96" x="251.644" y="182.0669">Fault corrected</text><!--MD5=[2d0e5e51f1bfb335d041cd33a4060848]
link paused to faulted--><path d="M621.2321,215.8757 C631.6621,201.1553 639.569,182.8041 628.644,169 C604.858,138.9455 494.4088,123.649 434.5142,117.4453 " fill="none" id="paused-&gt;faulted" style="stroke: #A80036; stroke-width: 1.0;"/><polygon fill="#A80036" points="429.2331,116.9083,437.7822,121.7983,434.2074,117.4141,438.5916,113.8394,429.2331,116.9083" style="stroke: #A80036; stroke-width: 1.0;"/><text fill="#000000" font-family="sans-serif" font-size="13" lengthAdjust="spacingAndGlyphs" textLength="92" x="635.644" y="182.0669">Fault detected</text><!--MD5=[283dffafb7eee16224b533db58a9eb19]
link faulted to paused--><path d="M429.1653,134.9715 C464.443,157.0417 519.9971,191.7972 557.809,215.453 " fill="none" id="faulted-&gt;paused" style="stroke: #A80036; stroke-width: 1.0;"/><polygon fill="#A80036" points="562.3297,218.2812,556.8215,210.1167,558.0909,215.6293,552.5784,216.8987,562.3297,218.2812" style="stroke: #A80036; stroke-width: 1.0;"/><text fill="#000000" font-family="sans-serif" font-size="13" lengthAdjust="spacingAndGlyphs" textLength="96" x="510.644" y="182.0669">Fault corrected</text><!--MD5=[a407eebc53bd882ae384988f693bea22]
link faulted to archived--><path d="M429.3303,116.5839 C504.5743,122.8075 683.8345,140.2747 736.644,169 C755.1693,179.0767 771.1241,196.5234 782.5904,211.7187 " fill="none" id="faulted-&gt;archived" style="stroke: #A80036; stroke-width: 1.0;"/><polygon fill="#A80036" points="785.7039,215.9368,783.5773,206.3203,782.7345,211.914,777.1408,211.0713,785.7039,215.9368" style="stroke: #A80036; stroke-width: 1.0;"/><text fill="#000000" font-family="sans-serif" font-size="13" lengthAdjust="spacingAndGlyphs" textLength="167" x="759.644" y="182.0669">Admin or system archived</text><!--MD5=[c9501c4b1d18368ae857ea4a5c273bec]
link archived to *end--><path d="M801.644,266.2229 C801.644,283.8366 801.644,306.7774 801.644,321.6928 " fill="none" id="archived-&gt;*end" style="stroke: #A80036; stroke-width: 1.0;"/><polygon fill="#A80036" points="801.644,326.8002,805.644,317.8002,801.644,321.8002,797.644,317.8002,801.644,326.8002" style="stroke: #A80036; stroke-width: 1.0;"/><!--MD5=[af9897b11427dfe9dce22ff9e21c4e53]
@startuml
skinparam backgroundColor white
[*] - -> faulted
scheduled - -> faulted : Fault detected
offering - -> faulted : Fault detected
paused - -> faulted : Fault detected
faulted - -> scheduled : Fault corrected
faulted - -> offering : Fault corrected
faulted - -> paused : Fault corrected
faulted - -> archived : Admin or system archived
archived - -> [*]
@enduml

PlantUML version 1.2020.09(Sun May 10 10:51:06 UTC 2020)
(GPL source distribution)
Java Runtime: OpenJDK Runtime Environment
JVM: OpenJDK 64-Bit Server VM
Java Version: 1.8.0_252-b09
Operating System: Linux
Default Encoding: UTF-8
Language: en
Country: null
--></g></svg>