<?xml version="1.0" encoding="UTF-8" standalone="no"?><svg xmlns="http://www.w3.org/2000/svg" xmlns:xlink="http://www.w3.org/1999/xlink" contentScriptType="application/ecmascript" contentStyleType="text/css" height="277px" preserveAspectRatio="none" style="width:818px;height:277px;" version="1.1" viewBox="0 0 818 277" width="818px" zoomAndPan="magnify"><defs><filter height="300%" id="fdaxm7lx8wmmu" width="300%" x="-1" y="-1"><feGaussianBlur result="blurOut" stdDeviation="2.0"/><feColorMatrix in="blurOut" result="blurOut2" type="matrix" values="0 0 0 0 0 0 0 0 0 0 0 0 0 0 0 0 0 0 .4 0"/><feOffset dx="4.0" dy="4.0" in="blurOut2" result="blurOut3"/><feBlend in="SourceGraphic" in2="blurOut3" mode="normal"/></filter></defs><g><rect fill="#FEFECE" filter="url(#fdaxm7lx8wmmu)" height="50" rx="12.5" ry="12.5" style="stroke: #A80036; stroke-width: 1.5;" width="93" x="6" y="8"/><line style="stroke: #A80036; stroke-width: 1.5;" x1="6" x2="99" y1="34.2969" y2="34.2969"/><text fill="#000000" font-family="sans-serif" font-size="14" lengthAdjust="spacingAndGlyphs" textLength="73" x="16" y="25.9951">scheduled</text><rect fill="#FEFECE" filter="url(#fdaxm7lx8wmmu)" height="50" rx="12.5" ry="12.5" style="stroke: #A80036; stroke-width: 1.5;" width="78" x="326.5" y="135"/><line style="stroke: #A80036; stroke-width: 1.5;" x1="326.5" x2="404.5" y1="161.2969" y2="161.2969"/><text fill="#000000" font-family="sans-serif" font-size="14" lengthAdjust="spacingAndGlyphs" textLength="58" x="336.5" y="152.9951">archived</text><rect fill="#FEFECE" filter="url(#fdaxm7lx8wmmu)" height="50" rx="12.5" ry="12.5" style="stroke: #A80036; stroke-width: 1.5;" width="72" x="225.5" y="8"/><line style="stroke: #A80036; stroke-width: 1.5;" x1="225.5" x2="297.5" y1="34.2969" y2="34.2969"/><text fill="#000000" font-family="sans-serif" font-size="14" lengthAdjust="spacingAndGlyphs" textLength="52" x="235.5" y="25.9951">paused</text><rect fill="#FEFECE" filter="url(#fdaxm7lx8wmmu)" height="50" rx="12.5" ry="12.5" style="stroke: #A80036; stroke-width: 1.5;" width="72" x="434.5" y="8"/><line style="stroke: #A80036; stroke-width: 1.5;" x1="434.5" x2="506.5" y1="34.2969" y2="34.2969"/><text fill="#000000" font-family="sans-serif" font-size="14" lengthAdjust="spacingAndGlyphs" textLength="52" x="444.5" y="25.9951">offering</text><rect fill="#FEFECE" filter="url(#fdaxm7lx8wmmu)" height="50" rx="12.5" ry="12.5" style="stroke: #A80036; stroke-width: 1.5;" width="67" x="646" y="8"/><line style="stroke: #A80036; stroke-width: 1.5;" x1="646" x2="713" y1="34.2969" y2="34.2969"/><text fill="#000000" font-family="sans-serif" font-size="14" lengthAdjust="spacingAndGlyphs" textLength="47" x="656" y="25.9951">faulted</text><ellipse cx="365.5" cy="256" fill="none" filter="url(#fdaxm7lx8wmmu)" rx="10" ry="10" style="stroke: #000000; stroke-width: 1.0;"/><ellipse cx="366" cy="256.5" fill="#000000" rx="6" ry="6" style="stroke: none; stroke-width: 1.0;"/><!--MD5=[e708fe225b277342f98da17222acacdd]
link scheduled to archived--><path d="M54.5425,58.2019 C57.1681,73.9081 63.1101,93.2903 76.5,105 C112.4028,136.3974 249.7419,151.2564 321.3998,156.997 " fill="none" id="scheduled-&gt;archived" style="stroke: #A80036; stroke-width: 1.0;"/><polygon fill="#A80036" points="326.4434,157.3947,317.7856,152.6997,321.4589,157.0017,317.1568,160.6749,326.4434,157.3947" style="stroke: #A80036; stroke-width: 1.0;"/><text fill="#000000" font-family="sans-serif" font-size="13" lengthAdjust="spacingAndGlyphs" textLength="167" x="77.5" y="101.0669">Admin or system archived</text><!--MD5=[040f3bc76f16ccecca8943a9c338ea83]
link paused to archived--><path d="M253.8772,58.0672 C250.9327,72.7675 250.0267,91.1175 258.5,105 C272.2654,127.5532 298.5541,141.2472 321.628,149.3304 " fill="none" id="paused-&gt;archived" style="stroke: #A80036; stroke-width: 1.0;"/><polygon fill="#A80036" points="326.4972,150.9713,319.2458,144.3067,321.759,149.3746,316.6911,151.8878,326.4972,150.9713" style="stroke: #A80036; stroke-width: 1.0;"/><text fill="#000000" font-family="sans-serif" font-size="13" lengthAdjust="spacingAndGlyphs" textLength="167" x="259.5" y="101.0669">Admin or system archived</text><!--MD5=[4b46d481bce657bc4b74cb1a4e431593]
link offering to archived--><path d="M459.8078,58.1032 C452.9321,72.6411 443.12,90.8126 431.5,105 C423.7266,114.4909 414.1353,123.5606 404.6966,131.5001 " fill="none" id="offering-&gt;archived" style="stroke: #A80036; stroke-width: 1.0;"/><polygon fill="#A80036" points="400.6666,134.8314,410.152,132.1805,404.5205,131.6458,405.0551,126.0143,400.6666,134.8314" style="stroke: #A80036; stroke-width: 1.0;"/><text fill="#000000" font-family="sans-serif" font-size="13" lengthAdjust="spacingAndGlyphs" textLength="167" x="443.5" y="101.0669">Admin or system archived</text><!--MD5=[a407eebc53bd882ae384988f693bea22]
link faulted to archived--><path d="M664.7852,58.0716 C654.1778,73.9308 638.4272,93.5345 619.5,105 C584.6857,126.0894 472.7741,144.7719 409.7345,153.9644 " fill="none" id="faulted-&gt;archived" style="stroke: #A80036; stroke-width: 1.0;"/><polygon fill="#A80036" points="404.5366,154.717,414.017,157.3859,409.485,154.0004,412.8704,149.4684,404.5366,154.717" style="stroke: #A80036; stroke-width: 1.0;"/><text fill="#000000" font-family="sans-serif" font-size="13" lengthAdjust="spacingAndGlyphs" textLength="167" x="639.5" y="101.0669">Admin or system archived</text><!--MD5=[c9501c4b1d18368ae857ea4a5c273bec]
link archived to *end--><path d="M365.5,185.2229 C365.5,202.8366 365.5,225.7774 365.5,240.6928 " fill="none" id="archived-&gt;*end" style="stroke: #A80036; stroke-width: 1.0;"/><polygon fill="#A80036" points="365.5,245.8002,369.5,236.8002,365.5,240.8002,361.5,236.8002,365.5,245.8002" style="stroke: #A80036; stroke-width: 1.0;"/><!--MD5=[fe6b24e877a6924f92c6dc8a9f94d89d]
@startuml
skinparam backgroundColor white
scheduled - -> archived : Admin or system archived
paused - -> archived : Admin or system archived
offering - -> archived : Admin or system archived
faulted - -> archived : Admin or system archived
archived - -> [*]
@enduml

PlantUML version 1.2020.09(Sun May 10 10:51:06 UTC 2020)
(GPL source distribution)
Java Runtime: OpenJDK Runtime Environment
JVM: OpenJDK 64-Bit Server VM
Java Version: 1.8.0_252-b09
Operating System: Linux
Default Encoding: UTF-8
Language: en
Country: null
--></g></svg>